<?xml version="1.0" ?><svg enable-background="new 0 0 512 512" height="512px" id="Layer_1" version="1.1" viewBox="0 0 512 512" width="512px" xml:space="preserve" xmlns="http://www.w3.org/2000/svg" xmlns:xlink="http://www.w3.org/1999/xlink"><g><circle cx="256" cy="256" fill="none" r="91.3" stroke="#000000" stroke-linecap="round" stroke-linejoin="round" stroke-miterlimit="10" stroke-width="10"/><path d="   M315.6,186.9c-16,13.8-36.8,22.2-59.6,22.2c-22.8,0-43.6-8.3-59.6-22.1" fill="none" stroke="#000000" stroke-linecap="round" stroke-linejoin="round" stroke-miterlimit="10" stroke-width="10"/><path d="   M196.4,325.1c16-13.8,36.8-22.2,59.6-22.2c22.8,0,43.6,8.4,59.6,22.2" fill="none" stroke="#000000" stroke-linecap="round" stroke-linejoin="round" stroke-miterlimit="10" stroke-width="10"/><path d="   M256,164.7c-23,18.2-38.5,52.3-38.5,91.3c0,39,15.5,73.1,38.5,91.3c23-18.2,38.5-52.3,38.5-91.3C294.5,217,279,182.9,256,164.7z" fill="none" stroke="#000000" stroke-linecap="round" stroke-linejoin="round" stroke-miterlimit="10" stroke-width="10"/><line fill="none" stroke="#000000" stroke-linecap="round" stroke-linejoin="round" stroke-miterlimit="10" stroke-width="10" x1="164.7" x2="347.3" y1="256" y2="256"/></g></svg>